# xmcd
#
# Track frame offsets:
#	150
#	9765
#	21599
#	36581
#	56379
#	74455
#	91332
#	102185
#	125643
#	141630
#	162923
#	179897
#
# Disc length: 2630 seconds
# Revision: 0
# Processed by: cddbd v1.5.2PL0 Copyright (c) Steve Scherf et al.
# Submitted via: dBpowerAMP V12.0
#
DISCID=b00a440c
DTITLE=Sierra Hull - Weighted Mind
DYEAR=2016
DGENRE=Country
TTITLE0=Stranded
TTITLE1=Compass
TTITLE2=Choices and Changes
TTITLE3=Wings of the Dawn
TTITLE4=Birthday
TTITLE5=Weighted Mind
TTITLE6=Fallen Man
TTITLE7=The In-Between
TTITLE8=Lullaby
TTITLE9=Queen of Hearts - Royal Tea
TTITLE10=I'll Be Fine
TTITLE11=Black River
EXTD=
EXTT0=
EXTT1=
EXTT2=
EXTT3=
EXTT4=
EXTT5=
EXTT6=
EXTT7=
EXTT8=
EXTT9=
EXTT10=
EXTT11=
PLAYORDER=
